<svg version="1.2" xmlns="http://www.w3.org/2000/svg" viewBox="0 0 800 800" width="800" height="800"><style>.a{fill:#11141b}.b{fill:#efefef}</style><path fill-rule="evenodd" class="a" d="m786.6 13.4v773.2h-773.2v-773.2z"/><path fill-rule="evenodd" class="b" d="m330.6 42.8l6.2-3.1 18.7 21.8 40.3-9.3 31.1 24.8 9.3-3.1-18.6-15.5h12.4l34.2 18.6 6.2 12.4-15.5-3.1 43.4 24.9 6.2 27.9 21.8 3.1-21.8 6.2 12.5 15.6-15.6-3.1 6.2 24.8-24.8-40.4 6.2 34.2-9.3-12.4 12.4 37.2-15.5 3.1 40.4 6.3-31.1 9.3 37.3 12.4 12.4 27.9-12.4-18.6h-18.7l15.6 15.5-31.1-9.3 18.6 18.7-59-18.7 28 15.6 6.2 43.4-21.7-40.3h-18.7l18.7 15.5-3.1 15.5-46.3-21.6 33.8 74.4 99.4 46.6 31.1 52.8 43.5-3.1 49.6 27.9-31-3.1 9.3 9.4 46.6 6.2-46.6 6.2 40.4 6.2 15.5 31h-3.1l3.1 2.6v0.6h0.6l14.9 12.4-9.3 6.2 37.3 6.2h-24.9l12.5 24.8-18.7-15.5 12.5 24.9h15.5l-21.8 3.1-15.5-28v18.7l21.8 24.8 21.7-3.1-28 9.3-27.9-31 18.6 37.2-21.7-12.4-6.2 34.2-12.4-59-9.4 15.5 3.1-49.7-6.2 21.7-3.1-24.8-46.6-21.8-31-43.4-28 65.2 28 62.1-15.5 114.9-24.9 9.3v21.8h-34.2l37.3-59 3.1-74.6-52.8-59-37.2-74.5-105.6-21.8-65.3-77.6 3.1-12.4 59-18.7 21.8-27.9-37.3 31-52.8 15.6-90-46.6-31.1 68.3 21.7 12.4-18.6 37.3-21.7-55.9 34.1-83.9 28-12.4 43.1 12.1-74.2-74.2-77.6-6.2-3.1 18.6-37.3-6.2 40.4-34.2 96.3 3.2 74.5 49.6 21.7-24.8 18.7 3.1 74.5-96.3v-27.9l-12.4 37.2-49.7 6.3 9.3 9.3-40.4 15.5-3.1-9.3-18.6 6.2v-28l74.5-86.9zm-52.8 279.5l-6.2-12.4 34.2-55.9-43.5 62.1-3.1-37.3-3.1 34.2h-11.5zm434.8 304.3h3.1v3.2h-3.1zm-49.7-21.8h3.1v3.1h-3.1zm80.7-12.4h3.1v3.1h-3.1zm-39.7-55.9l-0.7-0.5v-2.6h3.2v3.1zm-286.4-37.3l40.4 6.2 15.5 37.3v62.1l-108.7 34.2-6.2 24.8h-28l34.2-49.7 71.4-21.7zm251.6-24.8h3.1v3.1h-3.1zm-186.3-164.6h3.1v3.1h-3.1zm34.1-96.3h3.1v3.1h-3.1zm164.6 434.8h3.1v3.1h-3.1z"/><path fill-rule="evenodd" class="a" d="m703.3 549.1h3.1v3.1h-3.1zm-3.1-3.1h3.1v3.1h-3.1zm-3.1-15.5h3.1v3.1h-3.1zm-21.7-21.8h3.1v3.1h-3.1zm-307.5-177h3.1v3.1h-3.1zm-87-6.2h3.1v3.1h-3.1zm-3.1-3.1h3.1v3.1h-3.1zm28-71.4h3.1v3.1h-3.1zm90-3.1h3.1v3.1h-3.1zm74.6-3.1h3.1v3.1h-3.1zm0 0l-46.6-15.6 6.2-46.5-3.1 43.4zm-15.5-24.8h3.1v3.1h-3.1zm-170.8-37.3h3.1v3.1h-3.1zm-3.2-9.3h3.2v3.1h-3.2zm195.7-9.3h3.1v3.1h-3.1zm-3.1-3.1h3.1v3.1h-3.1zm-3.1-3.1h3.1v3.1h-3.1zm-24.8 49.7l-12.5-37.3-31-12.4 37.2 12.4zm43.5-71.4h3.1v3.1h-3.1zm-183.2 0h3.1v3.1h-3.1zm133.5 15.5l3.1 15.6-43.4-43.5 49.6 24.8 9.4 28zm43.4-34.2h3.2v3.1h-3.2zm-3.1-3.1h3.1v3.1h-3.1zm-99.3-40.3l52.8 55.9-21.8-9.4zm99.4 40.4l-43.5-12.4-43.5-37.3zm-62.1-12.4h3.1v3.1h-3.1zm-24.8 12.4h3.1v3.1h-3.1zm27.9-9.3h3.1v3.1h-3.1z"/></svg>